<svg width="535" height="1800" viewBox="0 0 535 1800" fill="none" xmlns="http://www.w3.org/2000/svg">
<path d="M210.325 1829.42C192.923 1827.35 178.884 1820.66 172.205 1811.26C165.427 1801.71 163.003 1792.91 163.584 1779.9C164.166 1766.59 167.184 1759.76 175.557 1752.77C183.189 1746.42 198.847 1739.97 212.18 1737.7C218.179 1736.67 235.334 1736.98 239.799 1738.19C251.599 1741.36 262.929 1750.87 269.002 1762.68C273.961 1772.32 275.879 1780.12 275.879 1790.59C275.879 1810.32 264.697 1820.79 236.918 1827.1C223.275 1830.21 219.589 1830.53 210.325 1829.42ZM146.627 1715.42C135.285 1712.82 125.823 1705.46 120.517 1695.1C113.467 1681.35 111.723 1654.62 117.14 1643.51C124.463 1628.52 141.643 1620.77 168.272 1620.47C188.952 1620.25 201.581 1624.22 213.615 1634.71C224.425 1644.14 230.14 1658.08 230.09 1674.89C230.028 1696.07 217.239 1706.27 182.916 1712.5C164.71 1715.8 152.539 1716.78 146.627 1715.42ZM99.0452 1588.12C81.2468 1583.7 66.4664 1568.51 59.4039 1547.34C50.548 1520.8 55.4336 1505.04 75.3965 1495.83C86.3798 1490.76 119.96 1483.82 133.331 1483.85C139.96 1483.87 149.744 1486.03 155.285 1488.7C165.736 1493.73 176.002 1507.47 180.492 1522.44C185.069 1537.63 186.083 1547.6 183.881 1555.53C178.996 1573.14 165.044 1581.88 132.601 1587.68C117.821 1590.32 108.445 1590.44 99.0452 1588.12ZM54.172 1459.86C29.7812 1454.15 14.9637 1432.38 14.9389 1402.26C14.9142 1372.06 32.8363 1352.91 66.0953 1347.56C108.408 1340.75 133.764 1355.05 148.012 1393.8C152.762 1406.69 152.824 1407.33 150.325 1418.21C145.304 1440.07 130.869 1451.95 102.298 1457.71C89.4719 1460.3 61.4076 1461.56 54.172 1459.86ZM42.3106 1313.83C25.9717 1310.66 11.6613 1300.64 5.69962 1288.22C-2.52548 1271.07 -1.75863 1243.7 7.41885 1226.56C14.271 1213.77 28.8041 1203.59 44.809 1200.33C55.9902 1198.08 99.3544 1198.78 109.274 1201.38C122.83 1204.96 129.521 1209.53 134.283 1218.53C137.116 1223.87 137.363 1225.63 137.462 1241.44C137.511 1250.85 136.93 1261.89 136.151 1265.95C131.401 1290.91 117.252 1305.38 90.9685 1312.14C82.3352 1314.37 50.7212 1315.46 42.3106 1313.83ZM101.272 1161.57C98.1052 1160.73 87.8022 1159.74 78.3897 1159.38C46.3798 1158.13 35.3594 1152.82 28.2722 1135.18C25.9346 1129.36 25.5635 1126.12 25.5512 1111.33C25.5388 1095.67 25.8233 1093.47 28.8783 1085.34C37.1281 1063.46 53.6278 1048.21 75.6562 1042.11C83.7082 1039.89 118.192 1040.38 131.339 1042.91C156.819 1047.81 171.698 1059.99 177.561 1080.75C184.71 1106.05 169.719 1135.38 140.727 1152.8C126.442 1161.38 112.428 1164.5 101.272 1161.57ZM122.471 1005.63C91.9951 1002.86 73.9988 986.461 71.3025 959.022C68.569 931.287 98.4638 890.157 127.988 881.041C135.903 878.6 143.819 878.668 169.125 881.418C206.231 885.445 219.936 890.876 231.389 906.061C235.891 912.04 240.01 923.323 240.01 929.689C240.01 943.186 231.191 958.509 214.419 974.139C199.787 987.773 181.952 998.338 165.798 1002.94C157.821 1005.21 134.011 1006.69 122.471 1005.63ZM229.496 857.288C201.383 856.398 189.583 854.264 178.352 848.046C164.265 840.242 154.271 822.969 154.518 806.837C154.778 789.586 167.369 767.783 187.691 749.404C199.243 738.964 209.88 731.959 222.236 726.665C231.475 722.706 232.762 722.467 247.431 721.999C259.898 721.611 265.118 721.965 274.394 723.859C300.529 729.187 321.37 741.919 329.768 757.686C332.972 763.71 333.38 765.616 333.244 774.195C333.12 781.634 332.353 785.65 329.917 791.412C319.119 817.105 294.444 843.254 271.883 852.918C260.579 857.767 256.806 858.155 229.496 857.288ZM334.011 704.03C310.053 699.067 284.413 686.266 267.802 670.966C257.165 661.177 254.493 656.328 253.85 645.809C253.467 639.34 254.011 636.02 256.67 628.696C260.678 617.64 263.844 612.495 273.417 601.519C286.899 586.06 307.938 572.449 330.3 564.702C339.168 561.633 340.541 561.496 361.222 561.473C383.51 561.451 391.648 562.443 404.19 566.756C423.361 573.35 436.88 591.388 436.818 610.281C436.719 638.838 399.935 685.638 364.796 701.919C356.781 705.627 345.489 706.403 334.011 704.03ZM386.849 511.753C368.222 509.072 357.536 499.99 353.256 483.253C349.088 466.949 352.193 447.794 361.308 433.452C366.924 424.633 381.135 411.627 390.98 406.299C406.985 397.651 422.261 394.297 442.78 394.947C484.326 396.248 504.734 417.229 502.718 456.544C500.826 493.498 473.503 509.916 410.077 512.198C401.234 512.517 390.783 512.312 386.849 511.753ZM435.705 360.674C413.862 356.076 400.096 341.199 394.481 316.122C389.1 292.151 394.048 273.555 408.692 262.59C426.775 249.059 458.983 243.72 488.568 249.356C511.265 253.669 524.165 262.693 531.425 279.35C534.579 286.595 535 288.968 535 299.613C535 311.307 534.852 311.946 530.238 320.56C524.524 331.227 512.798 343.173 501.691 349.642C497.437 352.129 489.001 355.78 482.941 357.765C473.615 360.822 469.731 361.45 457.696 361.838C448.111 362.157 440.937 361.769 435.705 360.674ZM424.091 205.522C406.787 202.008 394.703 193.212 387.554 178.928C376.818 157.502 378.278 132.824 390.906 122.305C397.721 116.623 403.596 114.124 420.912 109.549C429.236 107.347 438.426 104.723 441.32 103.719C448.915 101.072 470.399 102.145 480.578 105.67C498.439 111.865 508.012 121.62 514.765 140.502C518.797 151.751 518.946 173.349 515.049 180.924C508.457 193.76 495.569 200.354 469.236 204.359C453.281 206.8 432.935 207.314 424.091 205.522ZM386.899 74.8887C361.259 67.3245 344.833 43.8332 345.501 15.6528C345.724 6.19474 346.243 3.74179 349.237 -1.86006C352.762 -8.50013 360.801 -16.0529 367.876 -19.3958C380.776 -25.4882 408.89 -30.7364 424.227 -29.9149C445.674 -28.7626 457.449 -19.373 472.848 8.84164L480.257 22.4298L478.117 29.5149C472.613 47.7693 461.221 60.4334 443.349 68.1573C424.128 76.4631 401.432 79.1671 386.899 74.8887Z" fill="#351E11"/>
</svg>
