<svg xmlns="http://www.w3.org/2000/svg" width="48" height="48" viewBox="0 0 50 65" fill="none">
  <path d="M25.13 43.64c0 0-1.5 1.2-1.24 1.64 0.63 1 0.46 2.5 1.63 2.5 1.2 0 2.7-0.8 2.7-0.8s1.1 0.3 1.6 1 0.2 2.8-1.7 3.6c-1.8 0.8-4.3-0.5-6-1.2-1.7-0.8-3.4-2.2-3.4-2.2s0-7.5 1.7-10.1c0.5-0.8 0.5-2 0.7-2.8 0 0 0.5-0.3 1-0.6 2.5-1.9 5.3-2.8 8.4-2.7 0.4 0 0.8 0.2 1.2 0.3 1.2 0.3 2.3 0.6 3.5 0.9 0 0 0 0.1 0 0.2 0.5 0.3 0.9 0.5 1.4 0.7 0 0 0.1 0 0.1 0.1 0.5 0.8 0.9 1.8 2 1.8 0 0 0 0.1 0 0.2 0 0.1 0.1 0.1 0.2 0.1 0 0 0.1 0 0.1 0.1 0.4 2.3 1.8 4.2 1.5 6.6-0.2 1.6 0.2 3.2 0 4.8-0.3 2.4-1.4 4.5-2.9 6.4-0.3 0.3-0.3 0.9-0.4 1.3 0 0 0 0.1-0.1 0.1-0.5 0.4-0.8 0.8-1.1 1.2 0 0 0 0 0 0-1.4-0.2-1.9 1.1-2.9 1.6-3.1 1.8-6.5 2.5-10 2.1-2.1-0.2-4.2-0.9-6.2-1.6-1-0.3-1.9-1.2-2.9-1.8-0.3-0.3-0.4-0.6-0.7-0.8-2.6-1.8-4.4-4.3-5.7-7.2-0.5-1-0.8-2.1-1-3.1-0.1-0.3 0.2-0.7 0.2-0.7-0.4-0.6-0.7-1-0.9-1.5-0.4-1.5-0.8-3-1.1-4.5-0.3-1.2-0.6-2.5-0.8-3.7-0.3-1.6-0.7-3.1-1-4.7-0.2-1.2-0.4-2.4-0.6-3.6-0.3-1.1-0.7-2.2-0.9-3.3-0.2-0.7-0.4-1.5-0.2-2.2 0.3-1.1 2.6-1.9 3.5-1.1 1 0.8 2.4 1.2 2.8 2.8 0.2 0.7 0.8 1.3-0.2 1.9 0 0 0.3 0.3 0.5 0.7 0.1-0.3 0.2-0.6 0.3-0.9 0.1 0 0.3 0.1 0.4 0.1 0.5 1.7 0.9 3.5 1.4 5.2 0.2 0.6 0.2 1.3 0.4 1.9 0.1 0.3 0.6 0.5 1 0.8 0.1 0.1 0.1 0.1 0.1 0.2 0.1 0.2 0.2 0.3 0.3 0.4 0 0 0 0 0 0.1 0.1 0.1 0.2 0.1 0.3 0.2 0 0 0.1 0 0.2 0.1 0.9 0.5 1.4 0.5 1.4-0.6 0 0 0 0 0.1 0 1.5-0.6 2-1.2 1.5-2-0.7-1.2-0.5-2.5-0.5-3.7 0.1-1.5 0.4-2.9 0.4-4.4 0-1.7-0.6-3.5-0.2-5.1 0.5-2 0-4-0.2-6 0.1-0.7 0-1.4 0.1-2.1 0.1-2 0-4 0.4-5.9 0.2-1 1.1-1.9 1.7-2.8 1.2 0.4 2.1 0.7 2.9 0.9 0 0 0 0 0 0.1 0 0.7 0.4 1.6 0.1 1.9-0.9 0.8-0.7 1.3 0 1.6 0 2 0.2 3.8 0 5.6-0.3 1.9 1.4 3.8 0 5.7 0 0.1 0.1 0.3 0.1 0.4 0 0.6 0.1 1.2 0 1.8-0.1 1.4 0.4 2.5 1.7 3 0.4 0.2 1.3 0.2 1.5-0.1 0.6-0.8 1.2-1.7 1.3-2.7 0.2-2.7 0.2-5.4 0.2-8.1 0-1.4-0.2-2.8-0.2-4.2 0-1.1-0.2-2.3 0-3.4 0.2-0.9 0.1-1.6 0-2.5 0-0.4 0.6-0.9 0.5-1.2-0.6-1.7-0.1-2.8 1.4-3.7 0.9-0.6 1.8-0.4 2.5 0.1 0.6 0.4 1 1.1 1.2 1.8 0.3 0.7 0.2 1.5 0.2 2.2 0 0.6 0.1 1.1 0.1 1.7 0 1.5-0.1 3 0 4.5 0 1.2 0.3 2.4 0.3 3.6 0 1.7-0.5 3.3-0.3 5 0.1 0.9-0.5 1.8-0.4 2.7 0.2 1.3 0.4 2.7 1.9 3.5 1 0.5 1.2 0.6 1.5-0.7 0 0 0 0 0 0 0.5 0 1 0 1.3 0 0-0.5 0-0.9 0-1.3 0-1.1 0-2.2 0.1-3.3 0-3.2 0.1-6.4 0.1-9.6 0-1.4 0-2.8 0.1-4.1 0.1-1.4 1.1-2.7 2.5-2.9 0.8-0.1 1.6 0 2 1 0.5 1.6 0.9 3.1 0.5 4.8-0.1 0.6 0 1.2 0 1.8 0 0.6 0 1.1 0.1 1.7 0 1 0.1 2 0.1 2.9 0 2.8 0.1 5.7-0.2 8.5-0.1 1.1 0 1.7 1 2.2 0.3 1.4 1.4 0.5 2 0.8 1.1-1.2 0.9-2.5 0.9-3.9 0-1.9 0.3-3.8 0.5-5.7 0.1-1 0.4-2 0.3-2.9-0.1-0.8 0.1-1.3 1-1.5-0.1-0.4-0.2-0.6-0.3-0.9-0.4-0.8 0-1.1 0.8-1.4 2.2-0.6 2.9 0.5 3.2 2.3 0.3 1.7 0.4 3.5 0.5 5.2 0.1 1.7 0 3.4 0 5.3-0.1 0.4-0.2 0.7-0.2 0.9 0.1 0.7 0.3 1.4 0.3 2.1 0.1 3 0.2 6.1 0.3 9.1 0 1.6 0 3.2 0 4.8 0 1.1 0.1 2.2 0.2 3.4-0.1 0.5-0.2 1-0.2 1.4 0 1.2 0.1 2.5-0.1 3.7-0.3 1.7-0.6 3.5-1.1 5.2-0.4 1.2-0.6 2.7-2.2 2.8-0.1 0.8-0.1 1.5-0.2 2.2 0 0 0 0-0.1 0-1.3 0.9-2.6 1.7-3.7 2.6-1 0.8-2.1 0.8-2.5-0.2 0 0 0 0.1 0.1 0.1 0.3-0.4 0.6-0.9 0.9-1.3 0 0 0 0.1 0.1 0.1 0.6-0.2 1.1-0.4 0.8-1 0 0 0 0 0 0 1.7 0.3 1.4-1.3 1.9-2.1 0.8-1.3 1.3-2.8 1.8-4.3 0.2-0.6 0.4-1.3 0.4-2-0.1-2.2-0.1-4.5-0.3-6.7-0.1-1.3-0.5-2.7-1-4-0.4-1.1-1.1-2.1-1.8-3.1-1.8-2.4-4-4.5-6.9-5.6-1.5-0.5-3.2-1.7-4.5-1.4-2.3 0.5-4.7-0.5-6.9 0.9-1.4 0.9-3.2 1.1-4.5 2.2-0.8 0.7-1.4 1.5-2.1 2.3 0.2 0.1 0.2 0.1 0.1 0.1-0.1 0-0.1 0.1-0.1 0.2 0 0-0.1 0.1-0.2 0.1-0.2 0.1-0.2 0.3-0.3 0.4 0 0 0 0-0.1 0-0.9 0.3-1.2 0.9-1.1 1.8 0 0 0 0-0.1 0-0.5 0.3-1 0.6-1.1 1-0.5 1.8-1.4 3.4-1.5 5.5-0.1 2.9 0.2 5.5 1.8 8 0.4 0.6 1.1 1 1.7 1.5 0 0 0 0 0 0 0.1 0.1 0.2 0.1 0.3 0.2 0 0 0 0 0 0.1 0 0.1 0 0.1 0 0.1 2 1.5 3.6 3.3 6.3 3.1 0.3 0 0.6 0.2 0.9 0.2 1.4 0.2 2.8 0.4 4.1-0.4 0.5-0.3 1.2-0.3 1.6-0.6 0.6-0.4 1.1-1.1 1.7-1.6 0 0 0.1 0 0.1 0 0.1 0 0.1-0.1 0.1-0.2 0 0 0-0.1 0.1-0.1 1.3 0.3 1-0.6 1-1.2 0 0 0 0.1 0.1 0.1 0.7-0.3 1.4-0.6 2-0.9 0.6-0.3 0.6-0.6 0.2-1-0.2-0.3-0.4-0.7-0.4-1.1 0-2.3 0.2-4.5-1.3-6.6-1.7-2.4-4.8-3-6.9-1.7-0.3 0.2-0.5 0.7-0.7 1z" fill="#F69E6C"/>
</svg>